<?xml version="1.0" encoding="utf-8"?>
<!-- Fir Tree icon by Arthur Shlain from Usefulicons.com -->
<svg xmlns="http://www.w3.org/2000/svg" xmlns:xlink="http://www.w3.org/1999/xlink" xml:space="preserve" version="1.1" x="0px" y="0px" viewBox="0 0 100 100" width="400px" height="400px"><path d="M45,95h10c1.381,0,2.5-1.119,2.5-2.5V80H90c1.011,0,1.923-0.609,2.31-1.543c0.387-0.934,0.173-2.009-0.542-2.724   L78.535,62.5H82.5c1.011,0,1.923-0.609,2.31-1.543c0.387-0.934,0.173-2.009-0.542-2.724L71.035,45H75   c1.011,0,1.923-0.609,2.31-1.543c0.387-0.934,0.173-2.009-0.542-2.724L63.535,27.5H67.5c1.011,0,1.923-0.609,2.31-1.543   c0.387-0.934,0.173-2.009-0.542-2.724l-17.5-17.5c-0.977-0.977-2.559-0.977-3.535,0l-17.5,17.5   c-0.715,0.715-0.929,1.79-0.542,2.724c0.387,0.935,1.299,1.543,2.31,1.543h3.965L23.232,40.732   c-0.715,0.715-0.929,1.79-0.542,2.724C23.077,44.391,23.989,45,25,45h3.965L15.732,58.232c-0.715,0.715-0.929,1.79-0.542,2.724   c0.387,0.935,1.299,1.543,2.31,1.543h3.965L8.232,75.732c-0.715,0.715-0.929,1.79-0.542,2.724C8.077,79.391,8.989,80,10,80h32.5   v12.5C42.5,93.881,43.619,95,45,95z M52.5,90h-5V80h5V90z M16.035,75l13.232-13.232c0.715-0.715,0.929-1.79,0.542-2.724   c-0.387-0.935-1.299-1.543-2.31-1.543h-3.965l13.232-13.232c0.715-0.715,0.929-1.79,0.542-2.724C36.923,40.609,36.011,40,35,40   h-3.965l13.232-13.232c0.715-0.715,0.929-1.79,0.542-2.724c-0.387-0.935-1.299-1.543-2.31-1.543h-3.965L50,11.036L61.465,22.5H57.5   c-1.011,0-1.923,0.609-2.31,1.543c-0.387,0.934-0.173,2.009,0.542,2.724L68.965,40H65c-1.011,0-1.923,0.609-2.31,1.543   c-0.387,0.934-0.173,2.009,0.542,2.724L76.465,57.5H72.5c-1.011,0-1.923,0.609-2.31,1.543c-0.387,0.934-0.173,2.009,0.542,2.724   L83.965,75H16.035z" stroke="none"></path></svg>